<?xml version="1.0" encoding="utf-8"?>
<!-- Generator: Adobe Illustrator 24.3.0, SVG Export Plug-In . SVG Version: 6.00 Build 0)  -->
<svg version="1.1" id="Capa_1" xmlns="http://www.w3.org/2000/svg" xmlns:xlink="http://www.w3.org/1999/xlink" x="0px" y="0px"
	 viewBox="0 0 21 21" style="enable-background:new 0 0 21 21;" xml:space="preserve">
<style type="text/css">
	.st0{fill:#09266A;}
</style>
<g>
	<path class="st0" d="M2.8,0C1.3,0,0,1.3,0,2.8c0,1.5,1.3,2.8,2.8,2.8c1.5,0,2.8-1.3,2.8-2.8C5.6,1.3,4.3,0,2.8,0z"/>
	<path class="st0" d="M4.9,6.7H0.7c-0.2,0-0.4,0.2-0.4,0.4v13.5c0,0.2,0.2,0.4,0.4,0.4h4.2c0.2,0,0.4-0.2,0.4-0.4V7.1
		C5.3,6.9,5.1,6.7,4.9,6.7z"/>
	<path class="st0" d="M15.6,6.6c-1.5,0-2.9,0.5-3.7,1.2V7.1c0-0.2-0.2-0.4-0.4-0.4h-4c-0.2,0-0.4,0.2-0.4,0.4v13.5
		c0,0.2,0.2,0.4,0.4,0.4h4.2c0.2,0,0.4-0.2,0.4-0.4v-6.7c0-1.9,0.4-3.1,2.1-3.1c1.7,0,1.9,1.3,1.9,3.2v6.6c0,0.2,0.2,0.4,0.4,0.4
		h4.2c0.2,0,0.4-0.2,0.4-0.4v-7.4C21,10.1,20.4,6.6,15.6,6.6z"/>
</g>
</svg>
