<?xml version="1.0" encoding="UTF-8"?>
<svg id="Layer_1" xmlns="http://www.w3.org/2000/svg" width="1200" height="1227" version="1.1" viewBox="0 0 1200 1227">
  <!-- Generator: Adobe Illustrator 29.1.0, SVG Export Plug-In . SVG Version: 2.1.0 Build 142)  -->
  <defs>
    <style>
      .st0 {
        fill: #01256e;
      }
    </style>
  </defs>
  <path class="st0" d="M603.9,866h-.2c-75.3-.5-133.3-25.4-172.2-73.8-34.6-43.2-52.5-103.2-53.1-178.5v-.4c.6-75.3,18.5-135.3,53.1-178.5,38.9-48.5,96.9-73.4,172.2-73.9h.3c57.8.4,106.1,15.3,143.6,44.1,35.3,27.2,60.1,65.9,73.8,115l-42.9,12c-23.2-83.3-82-125.9-174.7-126.6-61.2.5-107.5,19.7-137.6,57.2-28.1,35.1-42.7,85.8-43.2,150.7.6,64.9,15.1,115.6,43.3,150.7,30.1,37.5,76.4,56.8,137.6,57.2,55.2-.4,91.7-13.3,122.1-43,34.6-33.9,34-75.6,22.9-101-6.5-14.9-18.4-27.4-34.4-36.8-4,28.4-13.1,51.5-27,68.8-18.6,23.2-45,35.9-78.5,37.7-25.3,1.4-49.7-4.6-68.6-16.9-22.4-14.5-35.5-36.6-36.9-62.4-1.4-25,8.6-48.1,28-64.8,18.5-16,44.6-25.4,75.4-27.2,22.7-1.3,43.9-.3,63.5,3-2.6-15.6-7.9-28-15.8-37-10.8-12.3-27.5-18.6-49.6-18.7h-.6c-17.8,0-41.9,4.9-57.3,27.8l-37-24.8c20.6-30.6,54-47.5,94.2-47.5h.9c67.2.4,107.3,41.6,111.3,113.4,2.3,1,4.5,2,6.8,3,31.4,14.7,54.3,37.1,66.4,64.6,16.8,38.3,18.3,100.8-32.6,150.6-38.9,38.1-86.2,55.3-153.1,55.8h-.2ZM625,620c-5.1,0-10.3.2-15.6.5-38.6,2.2-62.7,19.9-61.4,45.1,1.4,26.4,30.6,38.7,58.6,37.2,25.8-1.4,59.3-11.4,64.9-78.1-14.2-3.1-29.8-4.6-46.6-4.6Z"/>
</svg>